<svg width="64" height="64" viewBox="0 0 64 64" fill="none" xmlns="http://www.w3.org/2000/svg">
<g clip-path="url(#clip0_2589_578)">
<path d="M55.6353 24.9397L54.889 26.2695L55.0135 27.0422C53.0357 30.9153 50.8793 34.5092 50.1066 35.7731C49.8071 35.0938 49.413 34.6937 48.6487 34.284C48.6487 34.284 52.1576 27.9179 53.1052 22.8684C50.4516 24.1826 47.6723 25.4824 47.6723 25.4824L52.4283 17.7902C52.4283 17.7902 43.2841 19.7908 36.0507 20.512C28.2519 9.02578 21.1611 7 21.1611 7C21.1611 7 26.0728 15.0408 26.9832 20.663C17.04 19.7297 8.92968 17.7914 8.92968 17.7914L17.5875 31.7982C12.5224 32.0977 4 32.3744 4 32.3744C6.17074 34.5475 13.1597 37.3005 22.4022 39.585L24.0542 42.2541C18.6177 46.3512 15.3413 51.9937 15.3413 51.9937L15.8899 53C15.8899 53 18.589 52.8383 21.8978 52.7209C21.8978 52.7209 22.7975 49.8122 26.5016 46.2135L30.6814 52.9724L35.9214 44.4979L36.4916 44.4321L36.8091 44.6225C36.7228 44.7088 36.6641 44.8765 36.5395 45.0754C36.9732 45.3713 36.9864 45.4204 37.0067 45.9463C37.0067 45.9463 37.5865 46.15 38.3017 45.9152L38.4994 45.5558L38.7426 45.666C38.7749 45.9199 38.8444 46.1967 38.8444 46.1967C39.5105 46.5106 40.0747 46.0937 40.0747 46.0937C41.8537 46.459 43.0589 46.2506 43.4578 46.1535C45.2177 46.6387 46.3581 46.3105 46.8289 46.1056C47.64 46.4411 48.4762 46.6579 50.8003 46.6579C51.8712 46.6579 53.0141 46.592 53.0141 45.793C53.0141 44.6705 51.9407 40.5518 50.8542 38.272C50.8542 38.272 51.6532 38.8339 52.3696 38.9777L53.3639 38.2577C52.9123 37.727 52.9973 37.5712 53.0596 37.1591C52.7038 36.8584 52.2079 36.7889 52.2079 36.7889C53.1794 35.6724 55.2124 33.068 57.6407 28.4055C58.1511 28.3276 58.8051 28.0281 58.8854 27.2231C58.9705 26.3474 59.0232 25.97 59.0232 25.1374C57.4838 24.4342 55.6353 24.9397 55.6353 24.9397ZM51.404 18.5186L46.7187 26.0946C46.2156 26.3246 45.7088 26.5558 45.2285 26.7786C45.0823 26.8481 44.9385 26.914 44.7984 26.9799C44.4162 27.1596 44.064 27.3297 43.7525 27.4842L47.8568 20.978C44.9721 21.5219 41.0259 22.1928 37.1732 22.6169C37.063 22.4288 36.9528 22.2419 36.8414 22.0574C36.7923 21.9747 36.7432 21.8921 36.694 21.8118C36.5251 21.5363 36.355 21.2655 36.1837 20.996C43.4363 20.2592 51.404 18.5186 51.404 18.5186ZM52.5217 45.793C52.5217 46.011 52.0941 46.1679 50.7991 46.1679C48.4115 46.1679 47.6831 45.9487 46.811 45.5701C46.811 45.5701 45.6789 46.3069 43.4554 45.648C43.4554 45.648 42.1437 46.0721 39.9526 45.5725C39.5728 45.9104 39.2577 45.8145 39.2577 45.8145C39.2577 45.8145 39.211 45.6097 39.2122 45.3341C38.9259 45.2203 38.6216 45.0766 38.2981 44.91C38.146 45.2287 37.9723 45.4935 37.9723 45.4935C37.7147 45.5653 37.4715 45.5258 37.4715 45.5258C37.4512 45.1413 37.1673 44.946 37.1673 44.946C37.2775 44.7519 37.4188 44.6225 37.5901 44.5207C37.2739 44.3398 36.9432 44.1385 36.6006 43.9229C36.27 43.9624 35.9465 44.0008 35.6266 44.0355L30.6802 52.038L26.6023 45.4443C22.6501 49.0898 21.5456 52.2405 21.5456 52.2405C19.0838 52.31 16.1691 52.4909 16.1691 52.4909L15.9055 52.0045C18.9196 47.0784 23.0838 43.5444 24.7059 42.3787L22.97 39.5719C23.315 39.6569 23.8146 39.7779 24.3393 39.8941C24.4567 39.9205 24.5717 39.9456 24.6879 39.9708C25.0042 40.0379 25.3132 40.1002 25.5924 40.1481L26.7916 42.0493C28.1117 42.1487 30.1986 42.2925 32.9611 42.2925C33.3709 42.2925 33.7458 42.2913 34.0896 42.2865C32.7227 41.3772 31.2037 40.3649 29.5397 39.3502C29.7661 39.5886 29.9938 39.8354 30.2226 40.0858C29.0006 40.0858 27.1318 40.1756 24.6184 39.6066C13.137 37.0094 5.35971 33.2908 5.35971 32.8069C5.35971 32.8069 11.4706 32.6631 18.4356 32.2354L9.95515 18.5186C9.95515 18.5186 19.8037 20.6701 27.5702 21.1996C26.9125 15.6458 22.619 9.03776 22.619 8.13808C26.9569 10.3064 33.6895 16.3586 38.0777 24.9685C38.7785 25.4609 40.5887 26.7834 42.6995 28.6643L42.9547 28.3108C43.9095 27.6448 48.2186 25.8694 52.1444 23.8795C52.2378 23.8316 52.3073 23.8771 52.3073 24.0305C52.3073 24.6606 50.5211 29.9329 48.0545 34.3523L48.2749 34.6362C49.6155 35.313 49.7125 35.7731 50.3187 38.2936C51.4196 40.4883 52.5217 44.7519 52.5217 45.793ZM52.5205 37.3963C52.4451 37.8408 52.6823 38.1439 52.6823 38.1439L52.2702 38.441C51.755 38.2972 51.041 37.8096 51.041 37.8096L50.9608 37.5197C50.9608 37.5197 51.9827 37.0489 52.5205 37.3963ZM58.532 25.4824C58.532 25.8059 58.4769 26.3665 58.3954 27.1752C58.3164 27.9706 57.3304 27.9395 57.3304 27.9395C53.9282 34.5367 51.2567 37.0908 51.2567 37.0908L50.9764 37.0669L50.5702 37.3496L50.2252 36.5122C50.2252 36.5122 53.0141 32.0497 55.5203 27.1213L55.3981 26.3593L55.9575 25.3638C55.9575 25.3662 57.3065 25.0368 58.532 25.4824Z" fill="white"/>
<path d="M30.6801 48.2119L33.1647 44.2705C30.976 44.4466 29.2521 44.5005 28.3477 44.5173L30.6801 48.2119Z" fill="white"/>
<path d="M37.6764 41.8779C36.7815 42.1643 36.397 41.963 36.397 41.963C36.5719 41.7881 36.6869 41.4455 36.6869 41.4455C35.8938 41.6659 35.6482 41.4467 35.6482 41.4467C35.774 41.37 35.9022 41.0681 35.9022 41.0681C34.8755 41.0681 34.3125 41.237 34.3125 41.237C35.1655 41.3437 35.7249 41.7186 36.1981 42.2026C36.869 42.1547 37.2775 42.0948 37.565 42.0481L37.6764 41.8779Z" fill="white"/>
<path d="M40.9885 44.8753C41.5947 44.5171 42.0368 44.1769 42.0368 44.1769C40.0433 44.2643 39.2934 44.0211 39.2934 44.0211C39.6504 43.6653 40.0948 43.3587 40.3764 43.0759C40.1619 43.1095 39.9403 43.1334 39.7259 43.1514C39.7223 43.2484 39.6157 43.3587 39.3138 43.5431C38.716 43.6366 38.129 43.7252 37.5527 43.8031C37.7157 43.9768 37.8906 44.1469 38.0846 44.3075C38.2188 44.2643 38.3638 44.22 38.5171 44.1685C38.5171 44.2895 38.4848 44.4308 38.4368 44.5722C38.674 44.7327 38.94 44.8801 39.2431 45.0035C39.273 44.8082 39.3329 44.6045 39.4491 44.4201C39.5522 44.4488 39.6073 44.7435 39.6624 44.8238C39.8109 45.0394 40.0026 45.0754 40.0409 45.2539C40.8771 45.4467 41.9361 45.4994 43.3354 45.3233L43.7223 45.0083C41.6762 45.0442 40.9885 44.8753 40.9885 44.8753Z" fill="white"/>
<path d="M35.9434 41.359C35.9434 41.359 36.377 41.3854 36.8778 41.2069C36.8778 41.2069 36.9053 41.5447 36.6777 41.8442C36.6777 41.8442 37.103 41.8406 37.9751 41.6394C37.9751 41.6394 37.8997 41.8143 37.7954 42.0083C37.9536 41.982 38.071 41.9652 38.198 41.9652C38.4795 41.9652 38.5118 42.0239 38.7574 42.0239C39.221 42.0239 39.2785 42.1197 39.3468 42.6612C39.4415 42.799 39.5481 42.8924 39.6259 42.9727C39.9686 42.9463 40.3639 42.9092 40.7616 42.8517C40.7616 42.8517 40.3196 43.4663 39.6511 43.9203C39.6511 43.9203 41.5044 44.094 42.4664 43.973C42.4664 43.973 42.0531 44.4798 41.4804 44.7697C41.4804 44.7697 42.7623 44.8511 44.1399 44.8284C44.1399 44.8284 43.8692 45.1279 43.6008 45.3447C43.6008 45.3447 45.3008 45.7281 46.5119 45.4405C42.1417 43.7023 39.7362 41.0703 36.0787 41.0703C36.0236 41.226 35.9434 41.359 35.9434 41.359Z" fill="white"/>
<path d="M18.3117 49.2275L17.3281 50.4866C17.3281 50.4866 20.2188 50.0361 21.9511 50.2985L22.4327 49.4731C21.4875 48.9843 18.3117 49.2275 18.3117 49.2275Z" fill="white"/>
<path d="M18.7613 48.6635L18.457 49.0456C18.457 49.0456 21.4412 48.8192 22.529 49.3224L23.237 48.2574C22.2714 48.1004 18.7613 48.6635 18.7613 48.6635Z" fill="white"/>
<path d="M19.2759 48.032L18.9297 48.4536C18.9297 48.4536 22.5033 47.8966 23.3478 48.1026L23.4113 48.0164C22.526 47.7241 19.2759 48.032 19.2759 48.032Z" fill="white"/>
<path d="M20.4813 46.6484L19.4414 47.8368C19.4414 47.8368 22.3357 47.5361 23.5265 47.8703L24.7269 46.4818C23.5085 46.2806 20.4813 46.6484 20.4813 46.6484Z" fill="white"/>
<path d="M22.0362 45.0851L20.6621 46.4484C20.6621 46.4484 23.1958 46.1045 24.867 46.3238L25.5235 45.5978C24.8994 45.0647 22.0362 45.0851 22.0362 45.0851Z" fill="white"/>
<path d="M22.2965 44.8479L22.2246 44.9126C22.2246 44.9126 24.696 44.8719 25.6448 45.4673L25.785 45.3175C25.0195 44.8814 22.2965 44.8479 22.2965 44.8479Z" fill="white"/>
<path d="M23.6624 43.6665L22.4824 44.68C22.4824 44.68 25.2342 44.7303 25.9098 45.1843L26.9245 44.1852C26.0344 43.6785 23.6624 43.6665 23.6624 43.6665Z" fill="white"/>
<path d="M22.084 50.4099L22.1211 50.6591L22.5153 49.9666L22.4769 49.7271L22.084 50.4099Z" fill="white"/>
<path d="M22.6113 49.5078L22.6497 49.7474L23.3133 48.7783L23.269 48.5051L22.6113 49.5078Z" fill="white"/>
<path d="M23.4082 48.3098L23.4537 48.5961L23.5172 48.5135L23.4621 48.2332L23.4082 48.3098Z" fill="white"/>
<path d="M23.5977 48.0537L23.6564 48.3436L24.7849 47.075L24.7369 46.7288L23.5977 48.0537Z" fill="white"/>
<path d="M24.8828 46.5631L24.9307 46.9117L25.6136 46.1834L25.5285 45.8491L24.8828 46.5631Z" fill="white"/>
<path d="M25.6641 45.7018L25.7503 46.0396L25.8833 45.9018L25.8354 45.5149L25.6641 45.7018Z" fill="white"/>
<path d="M25.9844 45.3581L26.0335 45.7498L26.9284 44.8693L26.9176 44.4153L25.9844 45.3581Z" fill="white"/>
<path d="M34.5873 51.0772C34.5873 50.5453 34.156 50.114 33.6253 50.114C33.0934 50.114 32.6621 50.5453 32.6621 51.0772C32.6621 51.6091 33.0934 52.0392 33.6253 52.0392C34.156 52.0392 34.5873 51.6103 34.5873 51.0772ZM32.8682 51.0772C32.8682 50.6591 33.2072 50.3201 33.6253 50.3201C34.041 50.3201 34.3812 50.6579 34.3812 51.0772C34.3812 51.4953 34.0422 51.8331 33.6253 51.8331C33.2072 51.8331 32.8682 51.4953 32.8682 51.0772Z" fill="white"/>
<path d="M34.0211 51.6283L33.8031 51.1623C33.9301 51.1168 34.0211 50.9958 34.0211 50.8556C34.0211 50.6747 33.875 50.5286 33.6941 50.5286H33.2305V51.6295H33.4365V51.1815H33.5851L33.7923 51.6283H34.0211ZM33.6941 50.9742H33.4365V50.7334H33.6941C33.7612 50.7334 33.8151 50.7885 33.8151 50.8544C33.8151 50.9215 33.7624 50.9742 33.6941 50.9742Z" fill="white"/>
<path d="M27.5749 44.5853C27.5078 44.6416 27.4467 44.6979 27.3809 44.7542L30.6789 50.0182L34.3399 44.1672C34.2321 44.178 34.1291 44.1876 34.0225 44.1984L30.6789 49.5438L27.5749 44.5853Z" fill="#F3880B"/>
<path d="M49.0781 20.1406L44.7989 26.9799C44.939 26.914 45.084 26.8481 45.229 26.7786L49.6184 19.7681C46.869 20.3191 41.6722 21.2835 36.6934 21.8094C36.7425 21.8909 36.7916 21.9735 36.8407 22.055C41.5284 21.5507 46.3718 20.6701 49.0781 20.1406Z" fill="#F3880B"/>
<path d="M25.9531 41.9893L24.6904 39.9719C24.5742 39.9468 24.4592 39.9228 24.3418 39.8953L25.6404 41.9702C25.7327 41.975 25.8357 41.9809 25.9531 41.9893Z" fill="#F3880B"/>
<path d="M37.641 45.3317C37.9788 44.8753 38.2076 44.5842 38.2639 44.4021C37.9656 44.5303 37.5823 44.6034 37.375 44.9196C37.375 44.9196 37.5283 45.067 37.641 45.3317Z" fill="#F3880B"/>
<path d="M39.3799 45.6442C39.3799 45.6442 39.6039 45.6155 39.8028 45.4178C39.8028 45.4178 39.5908 45.0944 39.4686 44.7925C39.3176 45.171 39.3799 45.6442 39.3799 45.6442Z" fill="#F3880B"/>
<path d="M38.3359 37.6611C38.5168 39.0963 38.8607 39.7049 38.8607 39.7049C38.8607 39.7049 39.4021 40.129 40.4312 40.5495C39.3914 38.6255 38.3359 37.6611 38.3359 37.6611Z" fill="#F3880B"/>
<path d="M27.0664 44.0667L27.4809 43.8343C27.4809 43.8343 29.1844 44.1086 39.3852 43.0568C39.1408 42.8795 39.021 42.9155 39.021 42.5093C39.021 42.38 39.0426 42.3584 38.8222 42.3584C38.5982 42.3584 38.5047 42.2985 38.2424 42.2985C37.9129 42.2985 37.4277 42.6279 32.4286 42.6279C28.4489 42.6279 25.6648 42.2937 25.4815 42.2937C25.2982 42.2937 24.94 42.6339 23.875 43.4905C23.875 43.4905 25.9703 43.4629 27.0664 44.0667Z" fill="#F3880B"/>
<path d="M21.8674 50.4567C20.334 50.1644 17.1689 50.6939 17.1689 50.6939L16.3184 51.917L21.2732 51.6846L21.8674 50.4567Z" fill="#F3880B"/>
<path d="M55.9468 26.9464C54.2912 29.9221 52.4883 33.8647 50.5176 36.3038L51.0866 35.9456L51.21 35.8246L51.1094 36.1588L51.3478 36.0438L50.9872 36.6823L51.3238 36.4116C51.3238 36.4116 53.0106 34.5152 57.2754 26.8134C56.3254 26.6696 55.9468 26.9464 55.9468 26.9464Z" fill="#F3880B"/>
<path d="M56.1224 25.7914L55.7773 26.3377C55.7773 26.3377 56.6111 26.1796 57.7229 26.2718L58.1242 25.7052C56.901 25.4752 56.1224 25.7914 56.1224 25.7914Z" fill="#F3880B"/>
<path d="M50.8623 36.3601C50.8623 36.3601 50.7041 36.4882 50.4609 36.5565L50.6694 36.9974L50.7976 36.8979L50.7461 36.7398L50.9617 36.3313L50.8623 36.3601Z" fill="#F3880B"/>
<path d="M52.3434 37.5028C51.996 37.3219 51.3203 37.589 51.3203 37.589C51.3203 37.589 52.0056 37.7496 52.3937 37.9257C52.3937 37.9257 52.3242 37.7687 52.3434 37.5028Z" fill="#F3880B"/>
<path d="M28.3477 44.5171C27.896 44.5243 27.6457 44.5243 27.6457 44.5243C27.6217 44.5447 27.6013 44.5663 27.5762 44.5854L30.6801 49.5439L34.0237 44.1985C33.7314 44.2236 33.4451 44.25 33.1647 44.2704L30.6801 48.2117L28.3477 44.5171Z" fill="#006D80"/>
<path d="M25.9521 41.9893C26.1833 42.0049 26.4661 42.0253 26.7931 42.0504L25.5939 40.1492C25.3148 40.1013 25.0057 40.0378 24.6895 39.9719L25.9521 41.9893Z" fill="#006D80"/>
<path d="M47.8565 20.9768L43.7522 27.483C44.0625 27.3285 44.4159 27.1584 44.798 26.9787L49.0772 20.1394C46.371 20.6689 41.5275 21.5494 36.8398 22.055C36.9513 22.2395 37.0615 22.4263 37.1717 22.6144C41.0268 22.1903 44.9729 21.5195 47.8565 20.9768Z" fill="#006D80"/>
<path d="M27.6566 22.5558C27.6566 22.2527 27.6434 21.946 27.6159 21.6345C24.948 21.9172 23.3571 22.5474 22.7461 22.8337C23.6829 22.5713 25.3433 22.4923 27.6566 22.5558Z" fill="#006D80"/>
<path d="M47.9336 34.8577C47.9336 34.8577 44.6882 30.3006 38.448 25.7087C38.9775 26.8037 39.471 27.9358 39.9143 29.1062C39.9778 29.2703 39.9682 29.4141 39.8292 29.4141C38.4612 29.4141 33.6345 26.7594 28.8965 27.235C31.3571 29.5794 33.807 32.8703 31.4326 31.6699C31.4326 31.6699 33.9088 33.1997 36.8211 36.2665C38.9895 36.2665 39.4207 36.6331 39.5489 36.9362C39.7945 37.522 40.1539 38.5607 41.5735 40.2354C42.2252 40.2354 42.345 40.1923 42.5834 39.6077C42.5834 39.6077 42.7607 40.3552 42.4325 40.9039C45.3927 43.2412 51.1394 45.5964 52.0163 45.5964C52.3709 45.5964 51.6425 42.381 49.9797 38.5139C49.4358 36.0653 49.1351 35.3788 47.9336 34.8577Z" fill="#006D80"/>
<path d="M20.9633 32.0725C20.9633 32.0725 21.8103 32.5708 23.1987 33.6191C22.8585 33.0285 21.9576 32.3863 20.9729 31.7874L18.8105 31.9455L18.9699 32.2042C19.63 32.1623 20.296 32.118 20.9633 32.0725Z" fill="#006D80"/>
<path d="M33.6972 35.8606C33.357 37.7115 33.7163 39.1958 33.7163 39.1958C33.6576 38.5776 34.1428 36.5039 34.1428 36.5039L33.6972 35.8606Z" fill="#006D80"/>
<path d="M32.6128 34.8037C32.2714 36.9265 32.7517 38.6205 32.7517 38.6205C32.6487 37.8406 33.0572 35.5429 33.0572 35.5429L32.6128 34.8037Z" fill="#006D80"/>
<path d="M31.5398 33.843C31.1876 36.112 31.7363 37.9245 31.7363 37.9245C31.6321 36.8931 31.9843 34.4863 31.9843 34.4863L31.5398 33.843Z" fill="#006D80"/>
<path d="M29.0907 30.0984C29.0907 30.0984 24.9157 26.6446 19.7357 25.7749C19.5488 25.7749 19.1738 26.5608 19.1738 26.5608C19.1738 26.5608 19.7225 26.0672 19.8902 26.0672C24.3263 26.9238 29.0907 30.0984 29.0907 30.0984Z" fill="#006D80"/>
<path d="M49.6177 19.7668L45.2283 26.7774C45.7087 26.5546 46.2155 26.3234 46.7186 26.0934L51.4039 18.5173C51.4039 18.5173 43.4362 20.258 36.1836 20.9924C36.3537 21.2619 36.525 21.5326 36.6939 21.8082C41.6715 21.2823 46.8684 20.3179 49.6177 19.7668Z" fill="black"/>
<path d="M30.2242 40.088C29.9954 39.8377 29.7678 39.5909 29.5413 39.3525C31.2053 40.3672 32.7244 41.3795 34.0913 42.2887C33.7474 42.2935 33.3725 42.2947 32.9628 42.2947C30.2002 42.2947 28.1133 42.151 26.7932 42.0515C26.4661 42.0264 26.1834 42.006 25.9522 41.9904C25.8348 41.982 25.733 41.9761 25.6395 41.9713L24.3409 39.8964C23.8162 39.7802 23.3166 39.6592 22.9716 39.5741L24.7075 42.381C23.0842 43.5466 18.9213 47.0806 15.9071 52.0067L16.1707 52.4931C16.1707 52.4931 19.0854 52.3122 21.5472 52.2427C21.5472 52.2427 22.6506 49.092 26.6039 45.4466L30.6818 52.0403L35.6283 44.0378C35.9481 44.003 36.2728 43.9659 36.6022 43.9252C36.9449 44.1396 37.2755 44.3409 37.5918 44.523C37.4216 44.6236 37.2791 44.753 37.1689 44.9482C37.1689 44.9482 37.4528 45.1435 37.4732 45.5281C37.4732 45.5281 37.7163 45.5676 37.9739 45.4957C37.9739 45.4957 38.1476 45.231 38.2998 44.9123C38.6232 45.0788 38.9275 45.2214 39.2138 45.3364C39.2102 45.6095 39.2569 45.8144 39.2569 45.8144C39.2569 45.8144 39.572 45.9102 39.9518 45.5724C42.1441 46.0719 43.4547 45.6479 43.4547 45.6479C45.6793 46.3068 46.8102 45.57 46.8102 45.57C47.6835 45.9486 48.4107 46.1678 50.7983 46.1678C52.0933 46.1678 52.521 46.0108 52.521 45.7928C52.521 44.7518 51.4188 40.4882 50.3191 38.2947C49.7117 35.7741 49.6159 35.3141 48.2753 34.6372L48.0549 34.3533C50.5215 29.9352 52.3077 24.6629 52.3077 24.0315C52.3077 23.8782 52.2394 23.8327 52.1448 23.8806C48.219 25.8704 43.9099 27.6458 42.9551 28.3119L42.6999 28.6653C40.5879 26.7833 38.779 25.4619 38.0781 24.9695C33.6899 16.3585 26.9573 10.3063 22.6194 8.13794C22.6194 9.03762 26.913 15.6457 27.5707 21.1983C19.8042 20.67 9.95558 18.5184 9.95558 18.5184L18.4373 32.2377C11.4722 32.6642 5.36133 32.8091 5.36133 32.8091C5.36133 33.2931 13.1386 37.0128 24.62 39.6088C27.1334 40.1779 29.0022 40.088 30.2242 40.088ZM19.8916 26.0681C19.7251 26.0681 19.1752 26.5617 19.1752 26.5617C19.1752 26.5617 19.5502 25.7758 19.7371 25.7758C24.9171 26.6455 29.0921 30.0993 29.0921 30.0993C29.0921 30.0993 24.3277 26.9234 19.8916 26.0681ZM31.736 37.9245C31.736 37.9245 31.1874 36.1131 31.5396 33.843L31.984 34.4863C31.984 34.4863 31.6306 36.893 31.736 37.9245ZM32.7531 38.6217C32.7531 38.6217 32.2727 36.9278 32.6142 34.805L33.0586 35.5441C33.0586 35.5441 32.6501 37.8406 32.7531 38.6217ZM33.7163 39.1955C33.7163 39.1955 33.3569 37.7101 33.6971 35.8604L34.1428 36.5037C34.1428 36.5037 33.6576 38.5774 33.7163 39.1955ZM34.3129 41.2369C34.3129 41.2369 34.8759 41.068 35.9026 41.068C35.9026 41.068 35.7744 41.3711 35.6486 41.4465C35.6486 41.4465 35.8942 41.6658 36.6873 41.4454C36.6873 41.4454 36.5735 41.788 36.3974 41.9629C36.3974 41.9629 36.7819 42.1641 37.6768 41.8778L37.5654 42.0479C37.2779 42.0947 36.8694 42.1546 36.1985 42.2025C35.7253 41.7185 35.1658 41.3435 34.3129 41.2369ZM21.2729 51.6833L16.318 51.9157L17.1686 50.6926C17.1686 50.6926 20.3337 50.163 21.8671 50.4553L21.2729 51.6833ZM17.3291 50.4865L18.3127 49.2274C18.3127 49.2274 21.4885 48.983 22.4349 49.473L21.9533 50.2984C20.2199 50.0361 17.3291 50.4865 17.3291 50.4865ZM22.1211 50.659L22.0839 50.4098L22.4769 49.7282L22.5164 49.9666L22.1211 50.659ZM18.4564 49.0453L18.7607 48.6632C18.7607 48.6632 22.272 48.1001 23.2352 48.2559L22.5272 49.3209C21.4406 48.8189 18.4564 49.0453 18.4564 49.0453ZM22.6494 49.7473L22.611 49.5078L23.2699 48.5038L23.3142 48.777L22.6494 49.7473ZM18.9308 48.4535L19.2771 48.0318C19.2771 48.0318 22.5272 47.724 23.4125 48.0163L23.349 48.1025C22.5044 47.8965 18.9308 48.4535 18.9308 48.4535ZM23.4544 48.5961L23.4089 48.3098L23.4628 48.2331L23.5179 48.5134L23.4544 48.5961ZM19.4412 47.8366L20.481 46.6482C20.481 46.6482 23.5083 46.2804 24.7267 46.4817L23.5263 47.8701C22.3343 47.5359 19.4412 47.8366 19.4412 47.8366ZM23.6569 48.3433L23.5994 48.0534L24.7374 46.7284L24.7854 47.0747L23.6569 48.3433ZM20.6631 46.4481L22.0372 45.0848C22.0372 45.0848 24.9004 45.0656 25.5245 45.5987L24.868 46.3247C23.1968 46.1043 20.6631 46.4481 20.6631 46.4481ZM24.9315 46.9117L24.8824 46.5631L25.5281 45.8491L25.6144 46.1822L24.9315 46.9117ZM22.2241 44.9123L22.296 44.8476C22.296 44.8476 25.019 44.8812 25.7845 45.3172L25.6443 45.467C24.6955 44.8716 22.2241 44.9123 22.2241 44.9123ZM25.7509 46.0396L25.6647 45.7018L25.8372 45.5137L25.8851 45.9006L25.7509 46.0396ZM22.4828 44.6811L23.6629 43.6676C23.6629 43.6676 26.0337 43.6796 26.925 44.1875L25.9103 45.1866C25.2346 44.7302 22.4828 44.6811 22.4828 44.6811ZM26.0349 45.7497L25.9857 45.358L26.919 44.4151L26.9297 44.8704L26.0349 45.7497ZM30.6806 50.0181L27.3826 44.7542C27.4485 44.6979 27.5096 44.6416 27.5767 44.5853C27.6018 44.5649 27.6222 44.5445 27.6461 44.5242C27.6461 44.5242 27.8977 44.5242 28.3482 44.517C29.2526 44.5002 30.9777 44.4463 33.1652 44.2702C33.4444 44.2498 33.7307 44.2247 34.0242 44.1983C34.1308 44.1875 34.235 44.1779 34.3416 44.1672L30.6806 50.0181ZM27.4796 43.8341L27.0651 44.0665C25.969 43.4627 23.8737 43.4903 23.8737 43.4903C24.9387 42.6337 25.2957 42.2935 25.4802 42.2935C25.6647 42.2935 28.4488 42.6278 32.4273 42.6278C37.4252 42.6278 37.9116 42.2983 38.2411 42.2983C38.5034 42.2983 38.5969 42.3582 38.8209 42.3582C39.0413 42.3582 39.0197 42.3798 39.0197 42.5092C39.0197 42.9153 39.1395 42.8805 39.3839 43.0566C29.1831 44.1097 27.4796 43.8341 27.4796 43.8341ZM37.6397 45.3316C37.5259 45.0668 37.3737 44.9195 37.3737 44.9195C37.581 44.6032 37.9643 44.5301 38.2626 44.402C38.2063 44.5841 37.9787 44.8752 37.6397 45.3316ZM39.3791 45.6443C39.3791 45.6443 39.318 45.1711 39.4678 44.7925C39.59 45.0932 39.802 45.4179 39.802 45.4179C39.602 45.6155 39.3791 45.6443 39.3791 45.6443ZM43.3349 45.322C41.9356 45.4981 40.8766 45.4454 40.0404 45.2525C40.0033 45.074 39.8116 45.0393 39.6619 44.8225C39.6056 44.741 39.5517 44.4463 39.4486 44.4187C39.3312 44.6032 39.2713 44.8069 39.2426 45.0022C38.9395 44.8788 38.6735 44.7326 38.4363 44.5709C38.4843 44.4295 38.5166 44.2894 38.5166 44.1672C38.3633 44.2187 38.2183 44.263 38.0841 44.3061C37.8901 44.1456 37.7151 43.9755 37.5522 43.8018C38.1285 43.7239 38.7167 43.6353 39.3133 43.5418C39.6151 43.3573 39.7218 43.2471 39.7254 43.1501C39.9398 43.1321 40.1602 43.1081 40.3759 43.0746C40.0943 43.3561 39.6499 43.6628 39.2929 44.0198C39.2929 44.0198 40.0428 44.263 42.0363 44.1755C42.0363 44.1755 41.5942 44.517 40.988 44.874C40.988 44.874 41.6769 45.0429 43.723 45.0069L43.3349 45.322ZM43.6008 45.346C43.8692 45.1291 44.1399 44.8296 44.1399 44.8296C42.7622 44.8536 41.4804 44.7709 41.4804 44.7709C42.053 44.4798 42.4663 43.9743 42.4663 43.9743C41.5044 44.0941 39.6511 43.9216 39.6511 43.9216C40.3196 43.4675 40.7616 42.853 40.7616 42.853C40.3639 42.9093 39.9685 42.9464 39.6259 42.974C39.5481 42.8937 39.4414 42.8003 39.3468 42.6625C39.2773 42.1222 39.221 42.0252 38.7574 42.0252C38.5106 42.0252 38.4783 41.9665 38.1979 41.9665C38.0709 41.9665 37.9535 41.9832 37.7954 42.0096C37.9008 41.8155 37.9751 41.6406 37.9751 41.6406C37.103 41.8419 36.6777 41.8455 36.6777 41.8455C36.9053 41.5448 36.8778 41.2082 36.8778 41.2082C36.377 41.3867 35.9433 41.3603 35.9433 41.3603C35.9433 41.3603 36.0236 41.2273 36.0775 41.0728C39.7349 41.0728 42.1405 43.7035 46.5107 45.443C45.3019 45.7293 43.6008 45.346 43.6008 45.346ZM38.3357 37.6609C38.3357 37.6609 39.3911 38.6253 40.431 40.5493C39.4019 40.1288 38.8604 39.7047 38.8604 39.7047C38.8604 39.7047 38.5166 39.0961 38.3357 37.6609ZM39.8284 29.4128C39.9674 29.4128 39.9769 29.2691 39.9134 29.105C39.4702 27.9345 38.9766 26.8013 38.4471 25.7075C44.6874 30.2994 47.9327 34.8565 47.9327 34.8565C49.1343 35.3776 49.435 36.064 49.9777 38.5139C51.6417 42.381 52.37 45.5963 52.0142 45.5963C51.1373 45.5963 45.3906 43.2411 42.4304 40.9039C42.7586 40.3552 42.5813 39.6077 42.5813 39.6077C42.3429 40.1935 42.2231 40.2354 41.5714 40.2354C40.1518 38.5606 39.7924 37.5208 39.5469 36.9362C39.4187 36.6331 38.9874 36.2665 36.8191 36.2665C33.9068 33.1997 31.4306 31.6698 31.4306 31.6698C33.8037 32.869 31.3551 29.5794 28.8944 27.2349C33.6348 26.7593 38.4615 29.4128 39.8284 29.4128ZM27.6569 22.5556C25.3436 22.4921 23.6832 22.5712 22.7464 22.8324C23.3574 22.546 24.9483 21.9159 27.6162 21.6332C27.6425 21.9458 27.6569 22.2525 27.6569 22.5556ZM20.9638 32.0724C20.2965 32.1179 19.6293 32.1622 18.9704 32.2041L18.811 31.9454L20.9734 31.7872C21.9593 32.3862 22.859 33.0283 23.1992 33.619C21.8108 32.5707 20.9638 32.0724 20.9638 32.0724Z" fill="black"/>
<path d="M50.9609 37.5196L51.0412 37.8107C51.0412 37.8107 51.7552 38.2982 52.2703 38.442L52.6824 38.1449C52.6824 38.1449 52.4452 37.8418 52.5207 37.3974C51.9828 37.0488 50.9609 37.5196 50.9609 37.5196ZM51.3179 37.5902C51.3179 37.5902 51.9936 37.3231 52.341 37.504C52.3218 37.7699 52.3901 37.9269 52.3901 37.9269C52.0032 37.7508 51.3179 37.5902 51.3179 37.5902Z" fill="black"/>
<path d="M55.9589 25.366L55.3994 26.3615L55.5216 27.1234C53.0155 32.0519 50.2266 36.5144 50.2266 36.5144L50.5716 37.3518L50.9777 37.0691L51.258 37.093C51.258 37.093 53.9295 34.5377 57.3318 27.9416C57.3318 27.9416 58.3177 27.9728 58.3968 27.1773C58.4782 26.3687 58.5334 25.808 58.5334 25.4846C57.3078 25.0365 55.9589 25.366 55.9589 25.366ZM50.7968 36.8977L50.6686 36.9972L50.4602 36.5563C50.7046 36.488 50.8615 36.3598 50.8615 36.3598L50.9597 36.3311L50.7441 36.7396L50.7968 36.8977ZM51.3239 36.4114L50.9873 36.6821L51.3479 36.0436L51.1095 36.1586L51.2101 35.8244L51.0867 35.9453L50.5177 36.3035C52.4883 33.8645 54.2913 29.9219 55.9469 26.9461C55.9469 26.9461 56.3255 26.6694 57.2743 26.8132C53.0107 34.5162 51.3239 36.4114 51.3239 36.4114ZM58.126 25.705L57.7247 26.2717C56.613 26.1794 55.7792 26.3376 55.7792 26.3376L56.1242 25.7913C56.1242 25.7913 56.9017 25.475 58.126 25.705Z" fill="black"/>
</g>
<defs>
<clipPath id="clip0_2589_578">
<rect width="55.0208" height="46" fill="white" transform="translate(4 7)"/>
</clipPath>
</defs>
</svg>
