<svg width="64" height="64" viewBox="0 0 64 64" fill="none" xmlns="http://www.w3.org/2000/svg">
<g clip-path="url(#clip0_2589_693)">
<path d="M33.8676 25.2654C26.7549 25.4959 20.3562 27.2685 20.3562 27.2685L20.2099 26.3265L19.5579 27.4272C19.5579 27.4272 16.3424 28.6073 14.2178 29.7204C16.9399 28.7808 19.1488 28.2032 19.1488 28.2032L18.4894 29.6014L19.6943 28.523C19.9893 28.6792 20.2669 28.8329 20.5644 28.9891L20.443 27.9528C20.4454 27.9528 27.6201 25.9571 33.8676 25.2654Z" fill="white"/>
<path d="M61.2119 23.5422C61.2119 23.5422 59.1121 22.8431 57.2949 22.496C57.3197 22.491 59.3253 20.887 59.3253 20.887C59.3253 20.887 51.2308 18.75 41.5993 19.3896C41.5993 19.3896 40.1985 14.8081 33.7205 14.8081C28.901 14.8081 26.1491 17.8302 25.2938 20.1829C16.2052 22.2134 9.29076 26.8643 9.29076 26.8643L10.9592 28.1237C6.68267 30.4021 2.28711 34.0192 2.28711 34.0192C2.28711 34.0192 2.71848 36.1884 5.34392 39.6419C5.34392 39.6419 7.10165 40.9856 11.7327 42.7359C11.7327 42.7359 12.6178 42.5128 13.0591 42.2872C13.6938 42.5004 14.3507 42.6789 14.9953 42.7979C14.968 43.3805 14.7995 44.216 15.8779 45.2052L15.0945 45.6192C15.0945 45.6192 16.0614 48.0141 21.3891 49.2735C23.4245 48.7826 32.6792 47.0323 35.8749 52.8559L51.9771 37.0214H48.5484L61.2119 23.5422ZM49.1929 37.9139L36.0633 51.5097C36.0633 51.5097 32.6148 45.9216 21.4089 48.3661C21.4089 48.3661 17.4794 47.3174 16.4258 45.9216L17.3654 45.3738C16.6688 45.1184 15.801 44.2085 15.801 43.7573C15.801 43.6483 15.9052 43.564 16.0738 43.564C16.5175 43.564 17.4423 44.1193 19.3934 44.1193C21.5701 44.1193 23.4394 43.6879 23.4394 42.4285C23.4394 41.5583 21.0519 41.5261 21.0519 40.879C21.0519 40.0435 24.5649 39.5899 26.3549 39.5899C26.3549 39.5899 23.8955 39.4386 21.7213 39.4386C18.0918 39.4386 17.1373 40.0361 17.1373 40.4625C17.1373 41.0476 18.7265 41.2063 18.7265 41.7294C18.7265 42.0318 17.8612 42.126 17.0853 42.126C14.9656 42.126 12.9798 41.3377 12.9798 41.3377C12.9798 41.3377 12.3575 41.6872 11.7798 41.8186C11.7798 41.8186 7.78094 40.2617 5.96123 38.9949C5.96123 38.9949 3.99773 36.4636 3.32836 34.3663C3.32836 34.3663 8.06853 30.5335 12.6426 28.2824L10.8675 26.9411C10.8675 26.9411 18.1687 22.4811 25.926 20.9515C25.926 20.9515 27.6242 15.889 33.2916 15.889C39.1548 15.889 40.3597 20.4631 40.3597 20.4631C40.3597 20.4631 46.3865 19.9078 55.1876 21.6704L53.5588 22.9274C53.5588 22.9274 56.1792 23.4728 58.1378 24.2165L46.1039 37.9139H49.1929ZM39.3581 50.942C39.2282 50.9353 39.0982 50.9552 38.9762 51.0004C38.8542 51.0456 38.7427 51.1151 38.6484 51.2047C38.5541 51.2943 38.479 51.4022 38.4277 51.5218C38.3764 51.6413 38.3499 51.7701 38.3499 51.9002C38.3499 52.0303 38.3764 52.159 38.4277 52.2786C38.479 52.3981 38.5541 52.506 38.6484 52.5956C38.7427 52.6852 38.8542 52.7547 38.9762 52.7999C39.0982 52.8451 39.2282 52.865 39.3581 52.8584C39.6038 52.8459 39.8353 52.7394 40.0048 52.5611C40.1743 52.3828 40.2688 52.1462 40.2688 51.9002C40.2688 51.6541 40.1743 51.4175 40.0048 51.2392C39.8353 51.0609 39.6038 50.9545 39.3581 50.942ZM39.3581 52.6551C39.1582 52.6551 38.9665 52.5757 38.8252 52.4343C38.6838 52.293 38.6044 52.1013 38.6044 51.9014C38.6044 51.7015 38.6838 51.5098 38.8252 51.3685C38.9665 51.2271 39.1582 51.1477 39.3581 51.1477C39.558 51.1477 39.7497 51.2271 39.891 51.3685C40.0324 51.5098 40.1118 51.7015 40.1118 51.9014C40.1118 52.1013 40.0324 52.293 39.891 52.4343C39.7497 52.5757 39.558 52.6551 39.3581 52.6551Z" fill="#DDC9A3"/>
<path d="M39.7507 51.6783C39.7507 51.5922 39.7165 51.5095 39.6556 51.4486C39.5947 51.3877 39.5121 51.3535 39.426 51.3535H38.9648V52.4493H39.1706V52.0031H39.3169L39.5251 52.4493H39.7532L39.5351 51.9857C39.5982 51.9628 39.6528 51.921 39.6914 51.866C39.73 51.811 39.7507 51.7455 39.7507 51.6783ZM39.426 51.7973H39.1706V51.5593H39.426C39.4929 51.5593 39.5474 51.6138 39.5474 51.6783C39.5468 51.7101 39.5337 51.7403 39.511 51.7626C39.4883 51.7848 39.4578 51.7973 39.426 51.7973Z" fill="#DDC9A3"/>
<path d="M38.5356 22.0027C34.9565 21.8847 31.374 22.0947 27.8331 22.63C27.7752 23.0978 27.7785 23.5712 27.843 24.0381C31.2171 23.6762 34.9359 23.5547 38.6522 23.9489C38.7307 23.2984 38.6913 22.6392 38.5356 22.0027ZM33.2401 28.7486C35.2483 28.7486 36.9986 27.6627 37.9456 26.0463C35.1723 26.4066 32.4121 26.8622 29.6701 27.4123C30.6271 28.2453 31.8741 28.7486 33.2401 28.7486ZM33.2401 17.8477C31.9103 17.8479 30.6265 18.3341 29.6302 19.2149C28.6339 20.0957 27.9939 21.3102 27.8306 22.63C27.8306 22.63 30.5651 21.4003 38.0026 20.6491C37.531 19.7997 36.8406 19.0919 36.0032 18.5993C35.1657 18.1067 34.2117 17.8472 33.2401 17.8477Z" fill="#EBA900"/>
<path d="M38.5356 22.0027C38.6912 22.6391 38.7307 23.2984 38.6521 23.9488C41.0173 24.1992 43.3824 24.6579 45.6583 25.3967C43.0794 25.494 40.5066 25.7115 37.948 26.0487C37.5444 26.7406 36.9932 27.3349 36.3336 27.7894C35.674 28.2439 34.9222 28.5472 34.132 28.6779C33.3417 28.8086 32.5323 28.7634 31.7615 28.5455C30.9907 28.3276 30.2775 27.9423 29.6726 27.4172C24.4044 28.4659 20.7054 29.5245 20.7054 29.5245C23.311 29.641 24.7837 30.2459 24.7837 30.2459C18.0478 31.6095 11.7829 34.2051 9.75 35.0927C10.2359 35.8662 10.8681 36.7686 10.8681 36.7686L9.86404 38.0107C11.6639 38.3379 13.8902 38.147 13.8902 38.147L17.2321 36.1017L19.8526 36.8876L20.6435 35.8092H19.7807L21.5087 33.0251L22.9615 35.8067H22.3095L22.7508 36.7661L24.5605 36.4438L25.3316 35.4621H24.6424L25.6712 33.8804H24.8977L26.5265 31.1211L27.9173 33.9696H27.3025L28.2371 35.6307H27.5008L29.0082 38.3776L30.5155 36.2604H29.4817L31.0386 33.9176H30.0395L32.2881 30.0625L34.2342 33.9671H33.4236L34.7524 36.2604H33.8153L35.102 39.1065L37.2836 35.5439H36.0812L37.8638 32.6457H36.7704L39.1554 27.799L41.6594 32.8738H40.7743L42.3858 35.5439H41.2825L42.5171 38.1867L44.5327 35.12H43.4493L45.7896 31.7483H44.5327L48.2787 26.5767L50.2546 30.1344L54.4568 24.9653C49.615 23.1505 44.0939 22.1837 38.5356 22.0027ZM27.7909 23.2993C27.7912 23.0755 27.8053 22.852 27.833 22.6299C22.7656 23.4059 18.0403 24.8537 14.2051 26.9313C14.2051 26.9313 20.1228 24.8612 27.8405 24.0381C27.8077 23.7932 27.7911 23.5464 27.7909 23.2993Z" fill="#AA182C"/>
<path d="M58.138 24.2167C56.177 23.4729 53.559 22.9275 53.559 22.9275L55.1878 21.6706C46.3867 19.9079 40.3599 20.4632 40.3599 20.4632C40.3599 20.4632 39.1525 15.8892 33.2918 15.8892C27.6244 15.8892 25.9262 20.9516 25.9262 20.9516C18.1664 22.4788 10.8677 26.9413 10.8677 26.9413L12.6453 28.28C8.07122 30.5311 3.33105 34.3664 3.33105 34.3664C4.00043 36.4638 5.96393 38.995 5.96393 38.995C7.78364 40.2618 11.7825 41.8188 11.7825 41.8188C12.3577 41.6874 12.9825 41.3378 12.9825 41.3378C12.9825 41.3378 14.9683 42.1262 17.088 42.1262C17.8639 42.1262 18.7292 42.0345 18.7292 41.7295C18.7292 41.2064 17.14 41.0477 17.14 40.4627C17.14 40.0362 18.0945 39.4388 21.724 39.4388C23.8982 39.4388 26.3576 39.59 26.3576 39.59C24.5676 39.59 21.0546 40.0437 21.0546 40.8792C21.0546 41.5237 23.4421 41.5585 23.4421 42.4286C23.4421 43.6881 21.5728 44.1194 19.3961 44.1194C17.445 44.1194 16.5202 43.5641 16.0765 43.5641C15.9054 43.5641 15.8037 43.6484 15.8037 43.7575C15.8037 44.2112 16.6715 45.121 17.3681 45.3739L16.4285 45.9218C17.4821 47.3176 21.4116 48.3662 21.4116 48.3662C32.6175 45.9218 36.066 51.5098 36.066 51.5098L49.1956 37.9141H46.1041L58.138 24.2167ZM44.5323 35.1201L42.5168 38.1868L41.2821 35.544H42.3854L40.7739 32.8764H41.6515L39.1476 27.8016L36.7626 32.6483H37.8559L36.0759 35.544H37.2783L35.0966 39.1066L33.8099 36.263H34.7471L33.4182 33.9697H34.2289L32.2828 30.065L30.0342 33.9201H31.0333L29.4788 36.263H30.5126L29.0053 38.3802L27.498 35.6332H28.2343L27.2996 33.9722H27.9145L26.5261 31.1212L24.8973 33.8805H25.6708L24.642 35.4622H25.3312L24.5602 36.4439L22.7504 36.7662L22.3091 35.8068H22.9586L21.5083 33.0252L19.7803 35.8093H20.6431L19.8522 36.8902L17.2317 36.1018L13.8898 38.1471C13.8898 38.1471 11.6635 38.338 9.86366 38.0108L10.8702 36.7662C10.8702 36.7662 10.238 35.8638 9.7521 35.0903C11.785 34.2028 18.0474 31.6071 24.7858 30.2435C24.7858 30.2435 23.3131 29.6386 20.7075 29.5221C20.7075 29.5221 24.4065 28.4635 29.6697 27.4123C32.4115 26.861 35.1717 26.4054 37.9452 26.0463C40.5038 25.7104 43.0766 25.4928 45.6554 25.3943C43.3766 24.6699 41.0285 24.1847 38.6493 23.9465C34.9305 23.5523 31.2142 23.6737 27.8401 24.0357C20.1225 24.8588 14.2047 26.9289 14.2047 26.9289C18.04 24.8538 22.7652 23.406 27.8327 22.63C27.9731 21.4884 28.4712 20.4205 29.2556 19.5792C30.04 18.7379 31.0705 18.1664 32.1995 17.9466C33.3285 17.7267 34.4982 17.8698 35.5409 18.3552C36.5837 18.8407 37.4461 19.6437 38.0047 20.6492C30.5672 21.4003 27.8327 22.63 27.8327 22.63C31.2985 22.0995 34.9256 21.8863 38.5352 22.0028C44.0935 22.1838 49.6171 23.1506 54.4589 24.9629L50.2567 30.132L48.2808 26.5744L44.5348 31.7459H45.7917L43.4514 35.1176H44.5323V35.1201ZM20.5637 28.9916L19.6936 28.5255L18.4887 29.6039C18.7118 29.1329 18.9275 28.6841 19.1481 28.2057C19.1481 28.2057 16.9367 28.7858 14.2171 29.7229C16.3392 28.6073 19.5572 27.4297 19.5572 27.4297L20.2092 26.3289L20.3555 27.2735C20.3555 27.2735 26.7542 25.4984 33.867 25.2703C27.6195 25.9595 20.4447 27.9553 20.4423 27.9577L20.5637 28.9916Z" fill="#124734"/>
</g>
<defs>
<clipPath id="clip0_2589_693">
<rect width="59.5" height="39.6667" fill="white" transform="translate(2 14)"/>
</clipPath>
</defs>
</svg>
