<svg width="73" height="64" viewBox="0 0 73 64" fill="none" xmlns="http://www.w3.org/2000/svg">
<path d="M61.6909 32.7969C61.0611 32.7969 60.5498 33.3073 60.5498 33.9375C60.5498 34.567 61.0611 35.0783 61.6909 35.0783C62.3206 35.0783 62.8311 34.567 62.8311 33.9376C62.8311 33.3073 62.3206 32.7969 61.6909 32.7969ZM61.6909 34.8335C61.5732 34.8336 61.4566 34.8105 61.3479 34.7655C61.2391 34.7205 61.1403 34.6546 61.0571 34.5713C60.9739 34.4881 60.9079 34.3893 60.8629 34.2806C60.8179 34.1718 60.7948 34.0553 60.7949 33.9376C60.7949 33.4425 61.1952 33.0422 61.6909 33.0422C62.1859 33.0422 62.5867 33.4425 62.5867 33.9376C62.5867 34.4328 62.1859 34.8335 61.6909 34.8335ZM62.1595 33.6731C62.1595 33.6223 62.1495 33.572 62.13 33.5251C62.1105 33.4782 62.082 33.4356 62.0461 33.3997C62.0101 33.3638 61.9675 33.3354 61.9205 33.316C61.8736 33.2966 61.8233 33.2866 61.7725 33.2867H61.2229V34.5887H61.4672V34.0599H61.6425L61.8894 34.5887H62.1596L61.9018 34.0373C61.9771 34.0106 62.0423 33.9613 62.0884 33.8961C62.1346 33.8309 62.1594 33.753 62.1596 33.6731H62.1595ZM61.7725 33.8155H61.4672V33.5306H61.7725C61.851 33.5306 61.9152 33.5943 61.9152 33.6732C61.9151 33.7109 61.9 33.7471 61.8732 33.7738C61.8465 33.8004 61.8103 33.8154 61.7725 33.8155Z" fill="white"/>
<path d="M59.09 34.0448C60.8518 31.4925 61.7556 28.942 61.7556 26.4577C61.7556 19.9047 55.0542 15.5 45.0785 15.5C45.0785 15.5 44.602 15.5081 44.2706 15.5133C43.2615 13.8596 41.3823 12.9385 39.8022 12.6014L36.7801 7.82495L30.3776 18.2877C18.7855 22.6031 10.7032 30.6621 10.7032 37.9353C10.7032 40.6546 11.8698 43.0646 14.0589 44.9481L9.22656 52.8416C9.22656 52.8416 17.7037 51.4911 30.5286 50.7482L31.3114 48.6773C35.0686 48.2803 38.9795 47.3129 42.7022 45.8664C42.7359 46.1171 42.7929 46.3807 42.9231 46.6403L43.6242 48.04C44.6736 50.14 46.7542 52.6432 50.7013 52.6432C60.7675 52.6432 63.7709 44.1384 63.7709 44.1384C63.901 37.4474 59.09 34.0448 59.09 34.0448Z" fill="white"/>
<path d="M58.3269 34.16C60.1423 31.6716 61.1917 29.0477 61.1917 26.4577C61.1917 20.5512 55.3103 16.0632 45.0782 16.0632C44.707 16.0632 44.335 16.0717 43.9623 16.0833C43.0133 14.2264 40.8744 13.3538 39.4496 13.0992L36.7887 8.89136L30.7589 18.742C19.9853 22.7026 11.2666 30.4607 11.2666 37.9354C11.2666 40.6266 12.4911 43.0218 14.788 44.8335L10.334 52.1108C10.334 52.1108 19.5373 50.7762 30.1309 50.2057L30.9057 48.1555C35.1226 47.7486 39.3503 46.6447 43.2536 45.0465C43.2301 45.2069 43.1574 45.8483 43.4269 46.3879L44.1273 47.7895C45.236 50.0055 47.2447 52.08 50.7004 52.08C60.3566 52.08 63.2075 44.0419 63.2075 44.0419C63.2075 39.5523 61.1468 36.2948 58.3269 34.16Z" fill="#236192"/>
<path d="M60.2538 41.4861C59.6378 42.4246 58.6289 43.5217 58.3322 43.8387L58.3267 46.6466L58.145 46.6647L57.7619 46.7012L56.7934 45.2031C49.7697 50.1351 44.499 47.1016 44.499 47.1016L46.0817 49.5369C48.9006 53.1507 58.1101 51.8476 62.0364 45.1602L61.5038 45.1395C61.4113 43.6201 60.2538 41.4861 60.2538 41.4861Z" fill="#010101"/>
<path d="M49.9175 31.0476L41.3745 17.5403C41.0805 17.4772 40.7654 17.4474 40.4325 17.4474L49.0098 31.009C49.3077 31.0128 49.6109 31.0245 49.9175 31.0476ZM23.9071 32.797L36.8089 11.7187L37.642 13.0367C37.9819 13.071 38.3051 13.1158 38.61 13.17L36.7986 10.3057L23.79 31.5588C23.7916 31.8149 23.8107 32.2676 23.9071 32.797Z" fill="#A2AAAD"/>
<path d="M38.2344 41.2908C33.3341 41.2908 30.0549 43.744 25.5913 43.744C19.3777 43.744 17.4728 39.3593 17.4728 36.3252C17.4728 26.9756 28.4951 21.339 28.4951 21.339L28.712 20.9846C28.6751 21.0009 28.5802 21.0461 28.4386 21.1153C26.6078 22.0183 16.7155 27.3108 16.7155 36.3252C16.7155 37.7685 17.0475 39.0705 17.6308 40.1885C17.7618 40.4384 17.906 40.6812 18.063 40.9157L11.7988 51.1477C11.7988 51.1477 19.5276 50.0456 29.6033 49.4864L31.9393 43.3053C33.9829 42.7037 35.9771 42.1003 38.5509 42.1003C44.0015 42.1003 47.5048 45.0188 47.5048 45.0188C47.5048 45.0188 45.5095 41.2908 38.2344 41.2908Z" fill="#A2AAAD"/>
<path d="M40.4324 17.4474C38.1939 17.4539 35.1291 18.856 31.8859 21.1464L33.3615 18.7412L34.3719 17.924L35.1415 15.1339L36.3916 14.7492L36.76 12.9693C37.0678 12.9836 37.3591 13.0077 37.6419 13.0367L36.8088 11.7188L23.907 32.797C24.1816 34.3069 25.0887 36.4412 28.0246 36.4412C33.9037 36.4412 42.4035 31.0067 48.8694 31.0067C48.9152 31.0067 48.9626 31.009 49.0096 31.009L40.4324 17.4476V17.4474ZM18.5447 41.5585L13.2549 50.1996C13.2549 50.1996 19.8447 49.3184 29.0764 48.7697L31.0427 43.5645C29.2889 44.0627 27.4343 44.4955 25.0978 44.4955C22.4666 44.4955 20.0894 43.4115 18.5447 41.5585Z" fill="#6F263D"/>
<path d="M53.3207 48.8495L53.7526 48.1362C47.904 50.0736 45.4873 48.0688 45.4873 48.0688C47.4654 50.2922 51.7187 49.3198 53.3207 48.8495Z" fill="#A2AAAD"/>
<path d="M46.3692 49.2566C48.0535 51.3201 53.1805 51.1064 57.1955 48.7042L57.4966 47.9101C54.9801 49.637 49.3839 51.2363 46.3692 49.2566ZM36.8869 26.9182L34.2357 33.966C34.2357 33.966 30.5448 35.3607 28.1094 35.7588C32.993 36.1286 41.4752 30.6016 47.0185 30.6016C44.5233 29.8219 38.5285 32.1844 38.5285 32.1844L36.8869 26.9182Z" fill="#A2AAAD"/>
<path d="M36.8207 29.2158C36.3179 30.5519 35.7447 32.077 35.1992 33.527L37.8271 32.4435C37.5148 31.4433 37.1616 30.3113 36.8207 29.2158Z" fill="#236192"/>
<path d="M28.4387 21.1153C20.1707 24.33 13.7588 30.0843 13.7588 35.8706C13.7588 38.3705 14.8766 40.3171 16.6464 41.7969L17.631 40.1884C17.0476 39.0705 16.7157 37.7684 16.7157 36.3251C16.7157 27.3108 26.6079 22.0182 28.4388 21.1153H28.4387ZM57.2259 33.4062C58.2119 31.7783 58.7645 30.0856 58.7645 28.3894C58.7645 21.9377 51.3165 19.1667 44.4245 18.6194C44.3793 19.1539 44.2581 19.7333 44.0424 20.3608L50.8648 31.1465C52.9945 31.4341 55.2411 32.1754 57.2259 33.4062ZM41.3745 17.5403C42.3448 17.7475 43.0946 18.3076 43.5432 19.2872C44.1025 17.1534 43.4042 14.0179 38.6101 13.1699C38.2892 13.1134 37.9663 13.069 37.6421 13.0366C37.3488 13.0059 37.0547 12.9834 36.7602 12.9692L36.3917 14.7491L35.1416 15.1337L34.372 17.9238L33.3616 18.7411L31.886 21.1463C35.1292 18.8559 38.194 17.4537 40.4325 17.4473C40.7654 17.4473 41.0806 17.4771 41.3745 17.5403Z" fill="white"/>
<path d="M48.8747 31.5976C41.7905 31.5976 34.008 37.1173 27.898 37.1173C26.0843 37.1173 25.5373 36.4442 25.5373 36.4442L25.2727 36.8551C25.2727 36.8551 17.7831 33.2599 28.0102 22.1299C28.0102 22.1299 19.2043 26.7215 18.5029 36.0114L19.0356 35.5671C19.0356 35.5671 18.7584 41.8189 25.8377 41.8189C31.5313 41.8189 33.5504 39.7053 38.8328 39.7053C50.1022 39.7053 51.908 46.1295 51.908 46.1295C51.908 46.1295 44.5227 48.3066 44.0356 44.2284C44.0356 44.2284 42.9091 49.0064 52.3747 46.6017C52.3747 46.6017 52.9725 45.6658 52.9012 44.4458C52.9012 44.4458 53.7747 45.3234 53.9261 45.9934C53.9261 45.9934 54.6429 45.174 53.4933 42.966C53.4933 42.966 54.4745 43.863 55.1133 45.171L55.5093 44.8377C55.5093 44.8377 55.539 43.8819 53.6369 41.3162L52.3437 42.1284C52.3437 42.1284 49.3311 36.4376 38.1315 37.1682C38.1315 37.1682 47.4583 33.8598 52.8843 40.5958L54.0533 39.7957C54.0533 39.7957 57.3087 42.9593 58.1451 46.6647L58.3269 46.6466L58.3323 43.8388L58.3393 40.4847L59.2828 41.5893C59.2828 41.5893 59.7395 40.7589 59.192 39.0238C59.192 39.0238 61.3832 41.1652 62.0366 45.1602L62.2054 42.9368C62.2054 41.0211 59.0245 31.5976 48.8747 31.5976ZM57.0291 37.9835L56.7057 40.3943L55.1937 38.7999L54.4538 39.1865C53.4366 37.8977 49.5159 34.6342 44.9251 34.6342C38.3393 34.6342 32.7049 39.3897 27.0645 39.3897C20.9077 39.3897 20.6598 35.7139 20.6598 34.2592C20.6598 31.5588 22.2407 28.6143 22.2407 28.6143C21.6993 30.2664 19.3916 38.4015 27.4927 38.4015C33.8676 38.4015 37.2835 34 44.7142 34C51.8636 34 54.7498 38.0751 54.7498 38.0751L55.3056 37.7248L56.3609 38.8616L56.4416 37.6855L57.0911 36.5491C55.5897 33.5871 52.2341 32.5458 52.2341 32.5458C56.6289 33.371 57.9456 36.5788 57.9456 36.5788L57.0291 37.9835Z" fill="white"/>
<path d="M32.4483 44.0705L31.8232 45.7262C35.5344 45.5975 39.2883 44.8401 42.7681 43.6297C38.9519 41.8586 33.0526 43.8575 32.4483 44.0705Z" fill="white"/>
<path d="M42.5002 16.8928C40.4793 14.9698 35.702 16.5401 35.702 16.5401L35.5742 17.0535C40.3834 15.2579 42.5002 16.8928 42.5002 16.8928Z" fill="#236192"/>
<path d="M33.5215 19.4796C39.5012 16.1365 41.9486 17.0346 42.8681 17.8398C40.0215 14.8525 34.0193 18.717 34.0193 18.717L33.5216 19.4797L33.5215 19.4796Z" fill="#A2AAAD"/>
</svg>
