<svg width="64" height="64" viewBox="0 0 64 64" fill="none" xmlns="http://www.w3.org/2000/svg">
<g clip-path="url(#clip0_2589_799)">
<path d="M31.9952 57C45.8022 57 56.9904 45.8119 56.9904 32.0048C57 18.1978 45.8022 7 31.9952 7C18.1881 7 7 18.1978 7 31.9952C7 45.8022 18.1881 57 31.9952 57ZM31.9952 8.62719C33.5742 12.5748 36.0295 14.0768 36.0295 16.8979C36.0295 18.8236 34.4408 20.7108 31.9952 20.7108C29.5592 20.7108 27.9609 18.8332 27.9609 16.8979C27.9705 14.0768 30.4161 12.5748 31.9952 8.62719ZM30.6087 8.20354C27.7587 12.6807 26.4685 14.3272 26.4685 16.8305C26.4685 19.8346 28.9911 22.2706 32.0048 22.2706C35.0089 22.2706 37.5411 19.8346 37.5411 16.8305C37.5411 14.3272 36.2509 12.6807 33.4009 8.20354C45.9178 8.92567 55.8542 19.305 55.8542 32.0048C55.8542 45.1764 45.1764 55.8446 32.0144 55.8446C18.8332 55.8446 8.1554 45.1668 8.1554 31.9952C8.1554 19.2954 18.0919 8.91604 30.6087 8.20354Z" fill="white"/>
<path d="M17.0135 28.8467C16.5128 28.8467 16.1084 29.2511 16.1084 29.7517V37.0789C16.1084 37.5796 16.5128 37.984 17.0135 37.984C17.5141 37.984 17.9185 37.5796 17.9185 37.0789V29.7517C17.9185 29.2511 17.5141 28.8467 17.0135 28.8467Z" fill="white"/>
<path d="M40.5065 31.5715C40.9397 31.5715 41.2864 31.2249 41.2864 30.7916V29.6266C41.2864 29.1933 40.9397 28.8467 40.5065 28.8467C40.0732 28.8467 39.7266 29.1933 39.7266 29.6266V30.7916C39.7266 31.2249 40.0732 31.5715 40.5065 31.5715Z" fill="white"/>
<path d="M31.9948 53.6686C43.9629 53.6686 53.6682 43.9633 53.6682 31.9952C53.6682 21.9529 46.8417 13.5088 37.5696 11.0439C38.0607 11.6602 39.6975 13.9132 39.6975 16.821C39.6975 21.0189 36.2409 24.437 31.9948 24.437C27.7487 24.437 24.2922 21.0189 24.2922 16.821C24.2922 13.9132 25.929 11.6602 26.42 11.0439C17.1576 13.5088 10.3311 21.9625 10.3311 31.9952C10.3311 43.9633 20.0268 53.6686 31.9948 53.6686ZM44.5021 34.5949H46.0618V37.0597C46.0618 37.57 46.4759 37.9744 46.9765 37.9744C47.4868 37.9744 47.8912 37.5604 47.8912 37.0597V36.0102C47.8912 35.7599 47.7372 35.4133 47.5542 35.2496L44.839 32.8329C44.6465 32.6692 44.5021 32.3226 44.5021 32.0723V27.3447C44.5021 26.4012 45.2723 25.6309 46.2159 25.6309H48.2379C49.1814 25.6309 49.9517 26.4012 49.9517 27.3447V30.8783H47.8912V29.5015C47.8912 29.1356 47.5928 28.8371 47.2269 28.8371C46.861 28.8371 46.5625 29.1356 46.5625 29.5015V31.1094C46.5625 31.3598 46.7166 31.7064 46.9091 31.8701L49.6243 34.2964C49.8073 34.4601 49.9613 34.8067 49.9613 35.057V35.7503C49.9613 40.5933 47.872 44.955 44.5021 48.0842V34.5949ZM37.0016 37.9841C37.3674 37.9841 37.6659 37.6856 37.6659 37.3293V29.5111C37.6659 29.1452 37.3674 28.8468 37.0016 28.8468V25.6309H41.6328C42.5764 25.6309 43.3467 26.4012 43.3467 27.3447V31.5716C43.3467 32.2263 42.6053 32.5248 42.6053 32.5248C42.6053 32.5248 43.3467 32.8233 43.3467 33.478V37.3197C43.3467 37.6856 43.6451 37.9744 44.011 37.9744V46.8518C44.011 48.5271 43.5874 48.8833 43.5874 48.8833C42.7786 49.5381 41.912 50.1254 40.9973 50.6357C41.084 50.3276 41.1514 49.9713 41.1514 49.5284V34.1905C41.1514 33.7957 40.8337 33.478 40.4389 33.478C40.0441 33.478 39.7264 33.7957 39.7264 34.1905V37.0501C39.7264 37.5604 40.1404 37.9744 40.6507 37.9744V49.3744C40.6507 50.8186 39.8612 51.2038 39.8612 51.2038C38.7539 51.7141 37.5889 52.1185 36.3757 52.4169C36.7416 52.0511 37.0112 51.5408 37.0112 50.8764V37.9841H37.0016ZM29.9344 25.6213H36.5105V30.8783H34.9507V29.7422C34.9507 29.2415 34.5463 28.8371 34.0457 28.8371C33.545 28.8371 33.1406 29.2415 33.1406 29.7422V31.5716H34.9411V33.9209H33.1406V37.0886C33.1406 37.5893 33.545 37.9937 34.0457 37.9937C34.5463 37.9937 34.9507 37.5893 34.9507 37.0886V34.6045H36.5105V50.886C36.5105 52.3977 34.7967 52.7347 34.7967 52.7347C33.882 52.8695 32.948 52.9465 31.9948 52.9465C31.2149 52.9465 30.4447 52.8984 29.6937 52.8021C29.9344 52.648 30.4254 52.2148 30.4254 51.2712V37.9841C30.7913 37.9841 31.0801 37.6856 31.0801 37.3293V30.0022C31.0801 29.3667 30.5602 28.8468 29.9247 28.8468V25.6213H29.9344ZM24.3403 49.5477V37.9841C24.7062 37.9841 24.995 37.6856 24.995 37.3293V29.5111C24.995 29.1452 24.6965 28.8468 24.3403 28.8468V25.6309H27.7198V28.8468C27.354 28.8468 27.0651 29.1452 27.0651 29.5111V37.3293C27.0651 37.6952 27.3636 37.9841 27.7198 37.9841C28.0857 37.9841 28.3746 37.6856 28.3746 37.3293V34.6045H29.9344V51.2712C29.9344 52.831 28.3746 52.5999 28.3746 52.5999C26.6704 52.2629 25.0528 51.7044 23.5604 50.9438C23.8204 50.8379 24.3403 50.5202 24.3403 49.5477ZM20.4697 45.86V37.9841C20.8356 37.9841 21.1244 37.6856 21.1244 37.3293V29.5111C21.1244 29.1452 20.826 28.8468 20.4697 28.8468V25.6309H23.8493V28.8468C23.4834 28.8468 23.1945 29.1452 23.1945 29.5111V37.3293C23.1945 37.6952 23.493 37.9841 23.8493 37.9841V49.5477C23.8493 50.886 22.6746 50.4431 22.6746 50.4431C21.394 49.7018 20.2194 48.8063 19.1795 47.7857C19.6224 47.7665 20.4697 47.5065 20.4697 45.86ZM14.038 27.3351C14.038 26.3915 14.8082 25.6213 15.7518 25.6213H18.2552C19.1988 25.6213 19.969 26.3915 19.969 27.3351V45.86C19.969 47.6894 18.7751 47.4969 18.2552 46.8229C15.617 43.8381 14.0283 39.9771 14.0283 35.7599V27.3351H14.038Z" fill="white"/>
<path d="M52.4938 51.2134C52.4938 50.5009 51.9161 49.9329 51.2132 49.9329C50.5007 49.9329 49.9326 50.5106 49.9326 51.2134C49.9326 51.9259 50.5103 52.5036 51.2132 52.5036C51.9161 52.494 52.4938 51.9163 52.4938 51.2134ZM50.2022 51.2134C50.2022 50.655 50.6547 50.2025 51.2132 50.2025C51.7716 50.2025 52.2242 50.655 52.2242 51.2134C52.2242 51.7719 51.7716 52.2244 51.2132 52.2244C50.6547 52.2244 50.2022 51.7719 50.2022 51.2134Z" fill="#00205B"/>
<path d="M51.7429 51.9451L51.454 51.3192C51.6273 51.2614 51.7429 51.0978 51.7429 50.9052C51.7429 50.6645 51.5503 50.4719 51.3096 50.4719H50.6934V51.9451H50.9726V51.3481H51.1748L51.454 51.9451H51.7429ZM51.2999 51.0689H50.9533V50.7511H51.2999C51.3866 50.7511 51.4636 50.8185 51.4636 50.9148C51.4636 51.0015 51.3866 51.0689 51.2999 51.0689Z" fill="#00205B"/>
<path d="M36.0295 16.9075C36.0295 14.0864 33.5839 12.5747 31.9952 8.63672C30.4162 12.5843 27.9609 14.0864 27.9609 16.9075C27.9609 18.8331 29.5592 20.7203 31.9952 20.7203C34.4408 20.7107 36.0295 18.8331 36.0295 16.9075Z" fill="#D14520"/>
<path d="M33.3912 8.20361C36.2412 12.6808 37.5314 14.3272 37.5314 16.8306C37.5314 19.8347 35.0087 22.2706 31.9951 22.2706C28.991 22.2706 26.4588 19.8347 26.4588 16.8306C26.4588 14.3272 27.749 12.6808 30.5989 8.20361C18.0917 8.91611 8.15527 19.2955 8.15527 31.9953C8.15527 45.1668 18.8331 55.835 31.9951 55.835C45.1666 55.835 55.8348 45.1572 55.8348 31.9953C55.8445 19.2955 45.908 8.91611 33.3912 8.20361ZM31.9951 53.6687C20.027 53.6687 10.3217 43.9633 10.3217 31.9953C10.3217 21.9529 17.1481 13.5088 26.4202 11.044C25.9292 11.6602 24.2924 13.9132 24.2924 16.821C24.2924 21.0189 27.749 24.437 31.9951 24.437C36.2412 24.437 39.6977 21.0189 39.6977 16.821C39.6977 13.9132 38.0609 11.6602 37.5699 11.044C46.842 13.5088 53.6685 21.9529 53.6685 31.9953C53.6685 43.9633 43.9631 53.6687 31.9951 53.6687Z" fill="#00205B"/>
<path d="M36.5113 34.5947H34.9612V37.0788C34.9612 37.5795 34.5568 37.9839 34.0561 37.9839C33.5554 37.9839 33.151 37.5795 33.151 37.0788V33.9111H34.9515V31.5618H33.151V29.7324C33.151 29.2317 33.5554 28.8273 34.0561 28.8273C34.5568 28.8273 34.9612 29.2317 34.9612 29.7324V30.8782H36.5113V25.6211H29.9352V28.837C30.5707 28.837 31.0906 29.3473 31.0906 29.9924V37.3195C31.0906 37.6854 30.7921 37.9743 30.4359 37.9743V51.2518C30.4359 52.205 29.9352 52.6286 29.7041 52.7827C30.4551 52.8789 31.2254 52.9271 32.0053 52.9271C32.9585 52.9271 33.8924 52.8501 34.8071 52.7153C34.8071 52.7153 36.521 52.3783 36.521 50.8666V34.5947H36.5113Z" fill="#00205B"/>
<path d="M29.9345 34.5947H28.3747V37.3292C28.3747 37.695 28.0762 37.9839 27.72 37.9839C27.3541 37.9839 27.0653 37.6854 27.0653 37.3292V29.5013C27.0653 29.1354 27.3637 28.837 27.72 28.837V25.6211H24.3404V28.837C24.7063 28.837 24.9952 29.1354 24.9952 29.5013V37.3195C24.9952 37.6854 24.6967 37.9743 24.3404 37.9743V49.5379C24.3404 50.5007 23.8109 50.8185 23.5605 50.9148C25.0529 51.6754 26.6705 52.2435 28.3747 52.5708C28.3747 52.5708 29.9345 52.8115 29.9345 51.2421V34.5947Z" fill="#00205B"/>
<path d="M23.8496 49.5476V37.9839C23.4837 37.9839 23.1948 37.6854 23.1948 37.3292V29.511C23.1948 29.1451 23.4933 28.8562 23.8496 28.8562V25.6404H20.47V28.8562C20.8359 28.8562 21.1248 29.1547 21.1248 29.511V37.3292C21.1248 37.6951 20.8263 37.9839 20.47 37.9839V45.8599C20.47 47.5064 19.6227 47.7663 19.1895 47.7856C20.2293 48.8062 21.404 49.7016 22.6845 50.443C22.6845 50.4526 23.8496 50.8955 23.8496 49.5476Z" fill="#00205B"/>
<path d="M49.9524 30.8782V27.3349C49.9524 26.3914 49.1822 25.6211 48.2386 25.6211H46.2166C45.2731 25.6211 44.5028 26.3914 44.5028 27.3349V32.0625C44.5028 32.3128 44.6568 32.6594 44.8398 32.8231L47.5454 35.2494C47.7283 35.4131 47.8823 35.7597 47.8823 36.0101V37.0596C47.8823 37.5699 47.4683 37.9743 46.9677 37.9743C46.4573 37.9743 46.053 37.5602 46.053 37.0596V34.5947H44.4932V48.084C47.8535 44.9644 49.9524 40.5932 49.9524 35.7501V35.0569C49.9524 34.8065 49.7984 34.4599 49.6154 34.2962L46.9099 31.8699C46.7173 31.6966 46.5633 31.3596 46.5633 31.1093V29.5013C46.5633 29.1354 46.8617 28.837 47.2276 28.837C47.5935 28.837 47.892 29.1354 47.892 29.5013V30.8782H49.9524Z" fill="#00205B"/>
<path d="M19.9789 45.8599V27.3349C19.9789 26.3914 19.2086 25.6211 18.2651 25.6211H15.7617C14.8181 25.6211 14.0479 26.3914 14.0479 27.3349V35.7597C14.0479 39.977 15.6365 43.8379 18.2747 46.8227C18.7754 47.4967 19.9789 47.6893 19.9789 45.8599ZM17.9184 37.0788C17.9184 37.5795 17.5141 37.9839 17.0134 37.9839C16.5127 37.9839 16.1083 37.5795 16.1083 37.0788V29.7517C16.1083 29.251 16.5127 28.8466 17.0134 28.8466C17.5141 28.8466 17.9184 29.251 17.9184 29.7517V37.0788Z" fill="#00205B"/>
<path d="M43.3468 37.3197V33.4876C43.3468 32.8329 42.6054 32.5248 42.6054 32.5248C42.6054 32.5248 43.3468 32.2263 43.3468 31.5715V27.3447C43.3468 26.4011 42.5765 25.6309 41.6329 25.6309H37.0017V28.8467C37.3676 28.8467 37.666 29.1452 37.666 29.5015V37.3197C37.666 37.6855 37.3676 37.9744 37.0017 37.9744V50.8764C37.0017 51.5407 36.7321 52.051 36.3662 52.4169C37.5794 52.1281 38.754 51.7237 39.8517 51.2037C39.8517 51.2037 40.6412 50.8186 40.6412 49.3744V37.984C40.1309 37.984 39.7169 37.57 39.7169 37.0597V34.2001C39.7169 33.8053 40.0346 33.4876 40.4294 33.4876C40.8241 33.4876 41.1419 33.8053 41.1419 34.2001V49.538C41.1419 49.9713 41.0841 50.3372 40.9878 50.6357C41.9025 50.1254 42.7691 49.538 43.5778 48.8833C43.5778 48.8833 44.0015 48.5271 44.0015 46.8517V37.9744C43.6452 37.984 43.3468 37.6855 43.3468 37.3197ZM41.2863 30.7917C41.2863 31.2249 40.9397 31.5715 40.5064 31.5715C40.0731 31.5715 39.7265 31.2249 39.7265 30.7917V29.6266C39.7265 29.1933 40.0731 28.8467 40.5064 28.8467C40.9397 28.8467 41.2863 29.1933 41.2863 29.6266V30.7917Z" fill="#00205B"/>
</g>
<defs>
<clipPath id="clip0_2589_799">
<rect width="50" height="50" fill="white" transform="translate(7 7)"/>
</clipPath>
</defs>
</svg>
